/* XPM */
static char *blanc[] = {
/* columns rows colors chars-per-pixel */
"80 80 249 2",
"   c #000000",
".  c #010101",
"X  c #020202",
"o  c #030303",
"O  c #040404",
"+  c #050505",
"@  c #060606",
"#  c #070707",
"$  c #080808",
"%  c #090909",
"&  c #0A0A0A",
"*  c #0B0B0B",
"=  c #0C0C0C",
"-  c #0D0D0D",
";  c #0E0E0E",
":  c #0F0F0F",
">  c #101010",
",  c #111111",
"<  c #121212",
"1  c #131313",
"2  c #141414",
"3  c #151515",
"4  c #161616",
"5  c #171717",
"6  c #181818",
"7  c #191919",
"8  c #1A1A1A",
"9  c #1B1B1B",
"0  c #1C1C1C",
"q  c #1D1D1D",
"w  c #1E1E1E",
"e  c #1F1F1F",
"r  c #202020",
"t  c #212121",
"y  c #222222",
"u  c #232323",
"i  c #242424",
"p  c #252525",
"a  c #262626",
"s  c #272727",
"d  c #282828",
"f  c #292929",
"g  c #2A2A2A",
"h  c #2B2B2B",
"j  c #2C2C2C",
"k  c #2D2D2D",
"l  c #2E2E2E",
"z  c #2F2F2F",
"x  c #303030",
"c  c #313131",
"v  c #333333",
"b  c #343434",
"n  c #363636",
"m  c #373737",
"M  c #383838",
"N  c #393939",
"B  c #3A3A3A",
"V  c #3B3B3B",
"C  c #3C3C3C",
"Z  c #3D3D3D",
"A  c #3E3E3E",
"S  c #3F3F3F",
"D  c #404040",
"F  c #414141",
"G  c #424242",
"H  c #434343",
"J  c #444444",
"K  c #454545",
"L  c #464646",
"P  c #474747",
"I  c #484848",
"U  c #494949",
"Y  c #4A4A4A",
"T  c #4B4B4B",
"R  c #4C4C4C",
"E  c #4D4D4D",
"W  c #4E4E4E",
"Q  c #4F4F4F",
"!  c #505050",
"~  c #515151",
"^  c #525252",
"/  c #535353",
"(  c #545454",
")  c #555555",
"_  c #565656",
"`  c #575757",
"'  c #585858",
"]  c #595959",
"[  c #5A5A5A",
"{  c #5B5B5B",
"}  c #5C5C5C",
"|  c #5D5D5D",
" . c #5F5F5F",
".. c #606060",
"X. c #616161",
"o. c #626262",
"O. c #636363",
"+. c #646464",
"@. c #656565",
"#. c #666666",
"$. c #676767",
"%. c #686868",
"&. c #696969",
"*. c #6A6A6A",
"=. c #6B6B6B",
"-. c #6C6C6C",
";. c #6D6D6D",
":. c #6E6E6E",
">. c #6F6F6F",
",. c #707070",
"<. c #717171",
"1. c #727272",
"2. c #737373",
"3. c #747474",
"4. c #757575",
"5. c #767676",
"6. c #777777",
"7. c #787878",
"8. c #797979",
"9. c #7C7C7C",
"0. c #7D7D7D",
"q. c #7E7E7E",
"w. c #7F7F7F",
"e. c #808080",
"r. c #828282",
"t. c #838383",
"y. c #848484",
"u. c #868686",
"i. c #878787",
"p. c #888888",
"a. c #898989",
"s. c #8A8A8A",
"d. c #8B8B8B",
"f. c #8C8C8C",
"g. c #8D8D8D",
"h. c #8E8E8E",
"j. c #8F8F8F",
"k. c #909090",
"l. c #919191",
"z. c #929292",
"x. c #939393",
"c. c #949494",
"v. c #959595",
"b. c #969696",
"n. c #979797",
"m. c #989898",
"M. c #999999",
"N. c #9A9A9A",
"B. c #9B9B9B",
"V. c #9C9C9C",
"C. c #9D9D9D",
"Z. c #9E9E9E",
"A. c #9F9F9F",
"S. c #A0A0A0",
"D. c #A1A1A1",
"F. c #A2A2A2",
"G. c #A3A3A3",
"H. c #A4A4A4",
"J. c #A5A5A5",
"K. c #A6A6A6",
"L. c #A7A7A7",
"P. c #A8A8A8",
"I. c #A9A9A9",
"U. c #AAAAAA",
"Y. c #ABABAB",
"T. c #ACACAC",
"R. c #ADADAD",
"E. c #AEAEAE",
"W. c #AFAFAF",
"Q. c #B0B0B0",
"!. c #B1B1B1",
"~. c #B2B2B2",
"^. c #B3B3B3",
"/. c #B4B4B4",
"(. c #B5B5B5",
"). c #B6B6B6",
"_. c #B7B7B7",
"`. c #B8B8B8",
"'. c #B9B9B9",
"]. c #BABABA",
"[. c #BBBBBB",
"{. c #BCBCBC",
"}. c #BDBDBD",
"|. c #BEBEBE",
" X c #BFBFBF",
".X c #C0C0C0",
"XX c #C1C1C1",
"oX c #C2C2C2",
"OX c #C3C3C3",
"+X c #C4C4C4",
"@X c #C5C5C5",
"#X c #C6C6C6",
"$X c #C7C7C7",
"%X c #C8C8C8",
"&X c #C9C9C9",
"*X c #CACACA",
"=X c #CBCBCB",
"-X c #CCCCCC",
";X c #CDCDCD",
":X c #CECECE",
">X c #CFCFCF",
",X c #D0D0D0",
"<X c #D1D1D1",
"1X c #D2D2D2",
"2X c #D3D3D3",
"3X c #D4D4D4",
"4X c #D5D5D5",
"5X c #D6D6D6",
"6X c #D7D7D7",
"7X c #D8D8D8",
"8X c #D9D9D9",
"9X c #DADADA",
"0X c #DBDBDB",
"qX c #DCDCDC",
"wX c #DDDDDD",
"eX c #DEDEDE",
"rX c #DFDFDF",
"tX c #E0E0E0",
"yX c #E1E1E1",
"uX c #E2E2E2",
"iX c #E3E3E3",
"pX c #E4E4E4",
"aX c #E5E5E5",
"sX c #E6E6E6",
"dX c #E7E7E7",
"fX c #E8E8E8",
"gX c #E9E9E9",
"hX c #EAEAEA",
"jX c #EBEBEB",
"kX c #ECECEC",
"lX c #EDEDED",
"zX c #EEEEEE",
"xX c #EFEFEF",
"cX c #F0F0F0",
"vX c #F1F1F1",
"bX c #F2F2F2",
"nX c #F3F3F3",
"mX c #F4F4F4",
"MX c #F5F5F5",
"NX c #F6F6F6",
"BX c #F7F7F7",
"VX c #F8F8F8",
"CX c #F9F9F9",
"ZX c #FAFAFA",
"AX c #FBFBFB",
"SX c #FCFCFC",
"DX c #FDFDFD",
"FX c #FEFEFE",
"GX c #FFFFFF",
/* pixels */
"                                          . X . . . o o + o             $ 2 u i u 9 1 #               + $     X   . . .                                         ",
"                                          . .   . X X       , a H } 6.z.(.oX1X<X;X@X XT.v.4...P c 5     . # O . .   X                                           ",
"                      .       .           . . o o .   5 H 7.H.2XNXGXGXGXGXGXGXGXGXGXGXGXGXGXAXnX4XQ.u.Y r O   O + X   @   . . X . .                             ",
"                                O X   O X o     @ v h.}.rXGXGXGXGXFXFXDXSXSXDXDXDXSXSXAXAXFXGXGXGXGXGXCX@Xb.K >     $ X   o o   O O                             ",
"                        . .         X X     & E D.iXGXGXGXDXDXDXDXFXFXFXGXFXGXGXGXGXFXGXFXFXFXDXDXDXDXFXGXGXkXT.@.7     . X   @ O                               ",
"                    . X     . o o   @   * T K.zXGXGXSXSXFXGXFXFXGXGXGXGXGXGXGXGXGXGXGXGXGXGXGXGXGXFXGXFXSXAXGXGXCXoX-.4   + # . . o                             ",
"                    . X   . . X o     v B.jXGXGXDXDXFXGXFXGXGXGXGXGXGXGXGXGXGXGXGXGXGXGXGXGXGXGXGXGXGXFXGXFXGXAX0X1X$X!.! $   O X X                             ",
"                    .   . X o X   4 O.uXGXGXSXFXGXFXGXGXGXGXGXGXGXFXGXFXFXFXDXDXDXDXDXFXFXGXFXGXGXGXGXGXDXDXNX0.0 - d q.2Xx.q   # @   .   X .                   ",
"                    X +   . O   h S.BXGXSXDXFXGXFXGXGXGXGXFXGXFXDXSXSXDXGXGXGXGXGXGXGXGXDXAXSXDXFXGXFXFXDXDXp.&   +   O y.nX}.T X @ O X # X X                   ",
"                        @   o ^ <XGXFXDXFXFXFXGXGXGXFXGXFXFXDXDXGXGXGXGXFXVXxXlXlXxXcXAXGXGXGXGXFXDXDXSXGXjXS   + O o   V qXGXyXo.O & @ O O .                   ",
"            . . .     @ . O %.aXGXDXFXGXGXGXGXGXFXGXGXDXDXGXGXGXwX$XQ.s.:.X.J F F I Q X.0.F.[.8XGXGXGXDXSXuXz X o   O . f 8XVXnXBXg.* . O o o                   ",
"            . . .   O . @ 6.lXGXDXFXFXFXFXGXFXFXFXDXSXGXGXkXE.3.Z p %                     + 6 c | V.,XGXGXvXE   o @ #   L gXFXGXGXGXL.2   O O                   ",
"            X X . X X @ t.GXGXSXGXGXGXGXFXGXFXDXFXGXGX7Xt.N -         O + O . . X o . + X . .     O j o._.FX`.f       1 T.CXsXW.q.w.*XJ.4 o +                   ",
"          . .   O o   4.AXSXDXGXGXFXGXFXGXFXSXGXGX&Xw.p       @ # . . X o o . . X o O @ X . . X o o     > o.(.^.>.U -.(.BXtX:.2   & d E.G.3   X .   . X         ",
"          O . X o X +.pXGXSXGXFXGXGXFXGXDXFXGXsXk.d   . X $ .   o o                         X O . o + O o   8 -.-XMXhXFXSXZ.%   o     h 8Xn.+ @ o . O           ",
"          + + #   H dXGXDXFXFXGXGXFXGXFXGXGX XJ #   % X + o . O       X = 2 i a d t 9 - % $     .   + . + #   . c K.BXGXNX/   : . @ X . W.SX2.  O               ",
"            + X j <XGXSXGXGXGXGXFXGXDXFXMXD.s     o   o X   . X 6 G 4.Y.$X3XwXrXtX0X7X+XY.y.^ y $ X   O X X # O   2 1.rXAX'   * . & . + L.GXdXW   *   +         ",
"          @ . - L.GXSXFXGXFXGXFXGXSXGXzX0.1   . . X % o   % C t.;XzXVXGXGXGXGXGXGXGXGXGXGXZXcX>Xl.Y 0   . #     X   # } 2XW.*   @     M aXFXGX;Xj X X           ",
".   X     O . =.vXSXDXFXGXGXFXGXDXGXhX%.%   . . O o   + C F.xXGXGXGXGXDXDXDXFXFXFXDXDXDXDXGXGXGXGXMX_.[ *   $ X   O .   ~ XX<.6   # b ~.GXFXZXGXC.+ # .         ",
"+   O . X   s 5XGXSXGXGXGXFXGXFXDXkX<.o . o   o X o s r.aXGXGXDXDXDXFXFXGXFXGXGXGXGXFXGXFXFXDXDXFXGXGXGXK.m $ & + o + X o ! ,X`.r.x.0XGXDXFXDXDXcX|   @         ",
".     o . @ c.SXSXFXFXFXFXGXDXDXSXe.$ X X . +     ) }.GXFXSXDXFXFXGXFXGXGXGXGXGXGXGXGXGXGXFXGXFXFXFXSXSXGX5X;.=   # X + #   _ aXGXGXGXFXFXGXFXSXGX,Xw X         ",
"  O X O   H lXGXSXGXGXGXGXFXFXGXK.2   $ X #   % 2.iXGXFXDXGXGXFXGXGXGXGXGXGXGXGXGXGXGXGXGXGXGXGXGXFXGXFXSXGXVXh.7   o + X O O -.hXDXAXFXGXFXGXFXSXAXw.  o   . . ",
"  X o   > !.FXSXFXFXGXFXFXDXSX*Xr   +   $   $ 9.BXGXSXFXGXGXFXGXGXGXGXGXGXGXGXGXGXGXGXGXGXGXGXGXGXGXFXFXGXSXGXGXS.9   O o X   1 c.GXSXFXGXGXFXGXSXGX&Xf   X . . ",
"O . o   Y vXFXDXGXGXGXGXSXGXgXJ   X o O O = w.MXFXSXGXGXFXGXGXGXGXGXGXGXGXGXGXGXGXGXGXGXGXGXGXGXGXGXGXGXFXGXDXDXGXJ.7 . O O + . s :XGXDXFXFXGXFXFXDXBX6.  o . X ",
". + o   B.GXDXGXFXGXFXFXFXDXg.o X . X @   5.BXFXDXGXFXGXGXGXGXGXGXGXGXGXGXGXGXGXGXGXGXGXGXGXGXGXGXGXGXGXGXFXGXDXDXFXm.%   # + o   ' AXGXDXGXGXGXGXDXGXXXe   $ X ",
"  X   b sXFXSXFXGXFXGXDXFX#Xz       .   ] gXGXSXGXFXGXGXGXGXGXGXGXGXGXGXGXGXGXGXGXGXGXGXGXGXGXGXGXGXGXGXGXGXFXGXDXFXmX2.o + X o X , G.SXDXFXFXGXFXFXFXSX[   #   ",
"o +   f.DXSXFXGXGXGXFXSXGX7.. @ X o   p XXGXAXGXFXGXGXGXGXGXGXGXGXGXGXGXGXGXGXGXGXGXGXGXGXGXGXGXGXGXGXGXGXGXGXFXGXSXGXxXP o . + O   K rXFXSXGXGXGXFXSXGXL.= o   ",
"O . 2 ).GXSXGXGXGXFXSXFX;Xu . o o . O p.GXDXDXFXGXGXGXGXGXGXGXGXGXGXGXGXGXGXGXGXGXGXGXGXGXGXGXGXGXGXGXGXGXGXGXGXFXFXSXGX}.4   + +   < Y.GXAXFXGXGXGXDXFXhXB   # ",
"o   Z eXFXDXFXGXGXDXFXGX7.  O   X   A eXFXSXFXGXGXGXGXGXGXGXGXGXGXGXGXGXGXGXGXGXGXGXGXGXGXGXGXGXGXGXGXGXGXGXGXGXGXGXDXFXBX$.  X X . . _ NXFXDXGXGXFXGXSXGX<.  o ",
"  . 1.GXDXGXGXGXFXDXFX8XC   X O X - G.GXAXFXGXGXGXGXGXGXGXGXGXGXGXGXGXGXGXGXGXGXGXGXGXGXGXGXGXGXGXGXGXGXGXGXGXGXGXFXGXSXFX$X5 . O @ . *  XFXSXFXGXGXFXDXFXF.&   ",
"  * M.FXSXFXGXGXGXSXGXI., . X X   Z yXFXDXGXFXGXGXGXGXGXGXGXGXGXGXGXGXGXGXGXGXGXGXGXGXGXGXGXGXGXGXGXGXGXGXGXGXGXGXGXFXDXFXVXo.  # o X   y.GXDXGXGXGXGXSXGX9X0   ",
"  p *XFXDXFXGXGXFXDXSX-.  # X   o e.DXDXDXFXGXGXGXGXGXGXGXGXGXGXGXGXGXGXGXGXGXGXGXGXGXGXGXGXGXGXGXGXGXGXGXGXGXGXGXGXFXFXSXGX(.;   o .   Z xXFXDXFXGXGXDXFXvXL   ",
"  C mXFXSXGXGXGXDXGXpXZ   O O   4 @XGXSXFXGXGXGXGXGXGXGXGXGXGXGXGXGXGXGXGXGXGXGXGXGXGXGXGXGXGXGXGXGXGXGXGXGXGXGXGXGXGXGXSXFXkXS     o   ; =XFXSXGXGXGXFXFXAX,.  ",
"  ) ZXGXDXGXGXFXSXFXOXi .   O   A kXGXSXGXGXGXGXGXGXGXGXGXGXGXGXGXGXGXGXGXGXGXGXGXGXGXGXGXGXGXGXGXGXGXGXGXGXGXGXGXGXGXFXDXGXAX*.    + X . Z.GXAXFXGXGXDXFXFXd.  ",
"  >.GXFXFXGXGXGXAXFXE.*   . o   9.AXSXFXFXGXGXGXGXGXGXGXGXGXGXGXGXGXGXGXGXGXGXGXGXGXGXGXGXGXGXGXGXGXGXGXGXGXGXGXGXGXGXGXFXDXGXH.  . X   . =.VXGXDXGXGXFXSXFX!.. ",
"  x.FXAXFXGXGXFXSXGXr.  X .   @ S.DXDXFXGXGXGXGXGXGXGXGXGXGXGXGXGXGXGXGXGXGXGXGXGXGXGXGXGXGXGXGXGXGXGXGXGXGXGXGXGXGXGXGXGXSXFX&X,   X X   ^ xXFXSXGXGXGXAXFX;X  ",
"- n.GXFXDXGXGXFXFXFX&.        & oXFXDXFXGXGXGXGXGXGXGXGXGXGXGXGXGXGXGXGXGXGXGXGXGXGXGXGXGXGXGXGXGXGXGXGXGXGXGXGXGXGXGXGXFXDXFX6Xl   . o   C jXGXDXGXGXFXDXGX2Xo ",
"< ^.GXSXFXGXGXDXGXBX'   X X   2 2XGXSXGXGXGXGXGXGXGXGXGXGXGXGXGXGXGXGXGXGXGXGXGXGXGXGXGXGXGXGXGXGXGXGXGXGXGXGXGXGXGXGXGXGXDXGXaXP     +   f dXGXDXGXGXGXSXGXqX# ",
"& `.GXAXGXGXGXSXFXcXY   o o   q 9XGXDXGXGXGXGXGXGXGXGXGXGXGXGXGXGXGXGXGXGXGXGXGXGXGXGXGXGXGXGXGXGXGXGXGXGXGXGXGXGXGXGXGXGXFXFXnX'   X +   0 yXGXSXGXGXGXDXGXsX$ ",
"3 oXGXSXFXGXGXDXGXcXL   .     u rXGXFXGXGXGXGXGXGXGXGXGXGXGXGXGXGXGXGXGXGXGXGXGXGXGXGXGXGXGXGXGXGXGXGXGXGXGXGXGXGXGXGXGXGXGXDXGX+.  + .   5 eXGXAXGXGXGXDXGXlX# ",
"i 1XGXDXGXGXGXDXGXxXK   . .   a rXGXFXGXGXGXGXGXGXGXGXGXGXGXGXGXGXGXGXGXGXGXGXGXGXGXGXGXGXGXGXGXGXGXGXGXGXGXGXGXGXGXGXGXGXFXFXCX .  O O   t yXGXSXGXGXGXDXGXlX& ",
"9 &XGXSXGXGXGXSXFXxXL     X   e 0XGXDXGXGXGXGXGXGXGXGXGXGXGXGXGXGXGXGXGXGXGXGXGXGXGXGXGXGXGXGXGXGXGXGXGXGXGXGXGXGXGXGXGXGXDXGXkX(   X +   d iXGXDXGXGXGXDXGXsX& ",
"> }.GXSXGXGXGXDXGXBX`   . .   4 ,XFXSXFXGXGXGXGXGXGXGXGXGXGXGXGXGXGXGXGXGXGXGXGXGXGXGXGXGXGXGXGXGXGXGXGXGXGXGXGXGXGXGXGXGXFXFXfXR   . .   f iXGXSXGXGXGXSXGXuXO ",
"O E.GXAXFXGXGXFXFXFX=.  O +   = $XGXSXGXGXGXGXGXGXGXGXGXGXGXGXGXGXGXGXGXGXGXGXGXGXGXGXGXGXGXGXGXGXGXGXGXGXGXGXGXGXGXGXGXGXDXGXrXB   # o . n fXGXSXGXGXFXDXFXwX+ ",
"  C.FXZXGXGXGXFXAXGXx.  o X     U.FXSXFXGXGXGXGXGXGXGXGXGXGXGXGXGXGXGXGXGXGXGXGXGXGXGXGXGXGXGXGXGXGXGXGXGXGXGXGXGXGXGXGXFXSXFX&Xt   + X   Q cXFXDXGXGXGXSXGX5XX ",
"  w.FXAXFXGXGXGXZXFXI.#         7.VXGXFXFXGXGXGXGXGXGXGXGXGXGXGXGXGXGXGXGXGXGXGXGXGXGXGXGXGXGXGXGXGXGXGXGXGXGXGXGXGXGXGXGXAXGXR.+     O   &.CXGXFXGXGXFXDXDX X  ",
"  { GXFXDXGXGXFXSXFX X0   + +   R mXFXDXGXGXGXGXGXGXGXGXGXGXGXGXGXGXGXGXGXGXGXGXGXGXGXGXGXGXGXGXGXGXGXGXGXGXGXGXGXGXGXFXFXFXAX2.o X   o   Z.FXAXFXGXGXDXFXFXn.O ",
"  J BXGXSXGXGXGXSXGX0XN   + o   r 2XFXSXFXGXGXGXGXGXGXGXGXGXGXGXGXGXGXGXGXGXGXGXGXGXGXGXGXGXGXGXGXGXGXGXGXGXGXGXGXGXGXGXDXFXjXG   o o   : $XGXSXGXGXGXFXFXAX8.  ",
"  h dXFXDXGXGXGXFXDXAX=.  X +   % j.GXDXDXFXGXGXGXGXGXGXGXGXGXGXGXGXGXGXGXGXGXGXGXGXGXGXGXGXGXGXGXGXGXGXGXGXGXGXGXGXFXFXSXGX:X3   . X   M dXGXDXFXGXGXDXGXNX^   ",
"  < ^.FXDXFXGXGXGXSXGXN.# X %     I vXFXDXGXFXGXGXGXGXGXGXGXGXGXGXGXGXGXGXGXGXGXGXGXGXGXGXGXGXGXGXGXGXGXGXGXGXGXGXGXFXDXDXBX5.    . +   ,.CXFXFXGXGXGXSXGX0Xf   ",
"O . 0.GXSXGXGXGXFXSXGXaXx . % X   > U.GXSXFXGXGXGXGXGXGXGXGXGXGXGXGXGXGXGXGXGXGXGXGXGXGXGXGXGXGXGXGXGXGXGXGXGXGXGXFXGXSXGX=Xu . o o X & ~.GXSXGXGXGXFXDXFXK., o ",
"$   T NXDXFXFXGXGXFXDXGX:.  @ + O   ^ vXDXFXFXGXGXGXGXGXGXGXGXGXGXGXGXGXGXGXGXGXGXGXGXGXGXGXGXGXGXGXGXGXGXGXGXGXGXGXDXFXNX0.  + o O   Z nXFXDXFXGXFXGXSXGX7.. # ",
"#   i *XFXAXGXGXGXGXAXFX-X4 X   o o - A.GXDXFXFXGXGXGXGXGXGXGXGXGXGXGXGXGXGXGXGXGXGXGXGXGXGXGXGXGXGXGXGXGXGXGXGXFXFXSXGXOXa   @ + X + Z.GXAXFXGXGXGXFXFXnXK   O ",
"+ o X l.GXSXFXGXGXFXGXSXFX$.  X o @   c 4XGXSXGXFXGXGXGXGXGXGXGXGXGXGXGXGXGXGXGXGXGXGXGXGXGXGXGXGXGXGXGXGXGXGXFXGXDXGXNX} . O . X   v wXFXSXGXGXGXFXSXFX/.9     ",
"o O   G vXFXDXFXGXGXGXDXGX{.7 o +   @   *.bXGXDXGXFXGXGXGXGXGXGXGXGXGXGXGXGXGXGXGXGXGXGXGXGXGXGXGXGXGXGXGXGXGXGXDXFXBXz.= X X o O * j.AXDXFXFXGXGXDXFXFX#.  +   ",
". . & * K.GXSXGXFXGXFXDXFXAX>.X o o # . @ g.VXSXDXGXFXGXGXGXGXGXGXGXGXGXGXGXGXGXGXGXGXGXGXGXGXGXGXGXGXGXGXFXFXDXSXAXE.5   $ . %   L dXGXDXGXGXGXFXDXFXwXk   O   ",
"    %   } NXFXFXGXGXGXFXSXGX>Xz   @ . X + 3 B.GXFXDXGXFXGXGXGXGXGXGXGXGXGXGXGXGXGXGXGXGXGXGXGXGXGXGXGXGXFXGXFXSXGX|.l . O X # . 5 ].GXDXFXFXGXFXGXDXGXf.+ X X   ",
"o O   o 8 .XFXDXFXFXGXGXFXDXFX'.3 o @ . *   p A.SXGXDXGXFXFXGXGXGXGXGXGXGXGXGXGXGXGXGXGXGXGXGXGXGXGXFXFXGXDXDXFX&XB   o X . O O u.GXSXFXGXGXFXGXSXGX9XN   .     ",
"+ o     X ' kXDXSXGXGXFXGXDXFXGXq.X @ . . #   7 f.NXGXSXDXGXFXFXGXGXGXGXGXGXGXGXGXGXGXGXGXGXGXGXFXFXGXFXSXGXZXG.k   . O . &   / jXFXDXGXFXGXGXFXSXCXz.;         ",
"X . X o   < T.GXDXFXFXGXFXFXSXDXfX{   + * . +   - -.fXGXGXSXFXFXFXFXGXGXGXGXGXGXGXGXGXGXGXGXFXFXGXFXSXGXGXMXj.t   o . X &   m 0XGXDXFXFXGXFXFXSXGX0Xj   O       ",
"    . o   . G jXGXSXGXFXGXGXGXDXGXyX/   % o   + . + J _.kXGXGXSXDXFXFXGXFXGXGXGXGXGXGXGXFXGXFXDXSXFXGXNXXX] :   X . . O   b >XGXSXFXGXGXFXGXDXDXBX2.. @ X       ",
"            O e.CXSXDXGXGXFXGXGXSXGXeX!   o #   X . . 5 %.*XBXGXGXGXDXDXDXFXFXFXFXFXFXDXDXSXGXGXGXAX=X0.p     . . o X   v '.GXSXGXGXFXGXGXFXSXGX/.1 O %         ",
". .     o O   7 |.GXSXFXFXGXGXFXFXSXGXiX' o   o o X + +   3 } W.iXmXGXGXGXGXGXGXGXGXGXGXGXGXSXsX,X3.y     X O   @ o   B @XDXDXFXFXGXGXFXFXSXGXtXK   o X .       ",
"          X O   G 0XGXSXGXFXGXGXGXGXSXGXfX4.>   O X o X .     , C +.b. X9XgXgXvXFXhXuX0X%XI.5.A 3   . # $ . o % O X ) 9XGXDXGXGXGXGXFXGXDXFXDX$.O X   o         ",
"          X o +   o.vXGXSXGXGXFXGXFXFXDXGXmXH.b     X     @ O       o 5 k A / | +._ U n q O       O   . o % +   5 i.gXGXSXFXGXFXGXFXGXDXSXSXx.$   + . X         ",
"          .   o o % i.vXGXFXGXGXGXGXGXGXDXGXGX2Xo.>   o . + O . . X .                     o o o o   . @ O   $ I ).GXGXDXGXGXGXGXFXGXFXFXGXE.5   . .   O         ",
"          X O   +   - V.CXAXFXFXGXFXFXFXGXFXSXGXZXR.E & .     # + . X X o O X X o o + O X . . . + + .   + F j.iXGXSXDXGXFXFXGXFXGXFXSXGX^.i + X     . .         ",
"          + X O   o   9 v.GXGXDXGXGXGXGXFXGXFXDXGXGXaXY.[ 1         o o o + . . o .   . o o .       + L D.0XGXGXSXFXGXFXGXGXFXGXFXDXGX`.p O @ . .               ",
"          .   X     O   2 n.DXGXFXFXFXFXGXFXFXFXFXSXGXGXMXoXa.L 7 O                           1 N 2.^.nXGXGXFXFXFXFXFXGXFXGXGXFXSXGX/.k   # .                   ",
"            .         @   6 y.lXGXSXFXGXFXGXGXGXFXGXDXSXGXGXGXxX;XY.6.) D b a u r p g M Q *.h.+XaXSXGXGXSXDXFXGXFXGXGXFXGXGXSXFXGXP.z   @ . X                   ",
"                    O X X   - *.aXGXFXDXGXFXFXGXGXFXGXFXFXDXDXGXGXGXCXnXxXkXiXuXyXiXaXdXxXZXGXGXGXGXDXFXFXGXFXGXGXFXFXGXFXSXGXSXj.2 o X . + o                   ",
"                      # X   X   I OXZXGXSXFXGXFXGXGXGXGXGXGXFXFXDXSXGXGXGXGXGXGXGXGXGXGXGXGXFXSXDXFXGXFXGXGXGXGXFXGXFXSXFXGXqX$.%   o X .                       ",
"                    o X   + . $   u c.bXGXDXDXGXFXGXGXGXGXGXGXFXGXFXFXDXDXDXDXDXDXDXDXDXDXFXFXGXFXGXGXGXGXGXGXFXGXDXDXGXBXW.C   X * .   O                       ",
"                      .   .   . @   O ) }.GXGXDXFXFXFXGXFXGXGXGXGXGXGXGXGXGXGXGXGXGXGXGXGXGXGXGXGXGXGXGXFXGXFXDXDXGXGX5X=.6   o X   o X   .                     ",
"                                X . X   w 4.$XGXGXGXSXFXGXFXGXGXGXGXGXGXGXGXGXGXGXGXGXGXGXGXGXGXGXGXFXGXFXSXGXGXGX6Xf.h @   . X X .                             ",
"                                X O + X     s :.[.AXGXGXDXDXDXDXFXFXFXGXFXGXGXGXGXGXGXFXGXFXFXFXDXDXDXDXGXGXFX8Xu.m &   . X O   X X                             ",
"                                      X o O     r  .B.cXGXGXGXGXGXGXDXSXDXDXFXDXDXDXDXDXSXDXGXGXGXGXGXGXkXT.$.p O     +   o o   .                               ",
"                                X O .     o O #     3 x &.C.3XxXZXGXGXGXGXGXGXGXGXGXGXGXGXGXFXSXVX9XA.,.L 1     X @ . .       X X                               ",
"                                .   X   . O   X O . X     # q L ;.d.~.=X7XsXxXzXjXsXuX9X:X(.j.=.T u = O   o % O . o O     X   . X                               ",
"                                            . . X X o X X .           . O # % % $ # + O X             o o X . . X X o                                           "
};
