/* XPM */
static char *rouge_[] = {
/* columns rows colors chars-per-pixel */
"80 80 87 1",
"  c #010101",
". c #080606",
"X c #030708",
"o c #070909",
"O c #0A0A0A",
"+ c #140503",
"@ c #190705",
"# c #150805",
"$ c #190908",
"% c #141414",
"& c #1B1B1B",
"* c #250602",
"= c #260905",
"- c #290A05",
"; c #290B08",
": c #3E0B04",
"> c #242424",
", c #2B2B2B",
"< c #333333",
"1 c #3B3B3B",
"2 c #430C06",
"3 c #4E0A03",
"4 c #430F09",
"5 c #520E06",
"6 c #45120C",
"7 c #4A130D",
"8 c #541007",
"9 c #740F04",
"0 c #751106",
"q c #791207",
"w c #761408",
"e c #7B150A",
"r c #7D180D",
"t c #444444",
"y c #4B4B4B",
"u c #535353",
"i c #5B5B5B",
"p c #646464",
"a c #6C6C6C",
"s c #737373",
"d c #7C7C7C",
"f c #821306",
"g c #841609",
"h c #821A0E",
"j c #8C1C0F",
"k c #9B1506",
"l c #9D1708",
"z c #9E1809",
"x c #831C10",
"c c #A71606",
"v c #A91606",
"b c #AD1807",
"n c #A81708",
"m c #A91808",
"M c #B41C0B",
"N c #892216",
"B c #B8200F",
"V c #B92111",
"C c #DE1D07",
"Z c #D41E09",
"A c #DF1E08",
"S c #E11D07",
"D c #EA1E07",
"F c #E31F09",
"G c #EB1F08",
"H c #F21E07",
"J c #F01F08",
"K c #D6200C",
"L c #E72009",
"P c #ED2009",
"I c #F12009",
"U c #848484",
"Y c #8C8C8C",
"T c #949494",
"R c #9C9C9C",
"E c #A4A4A4",
"W c #ACACAC",
"Q c #B3B3B3",
"! c #BCBCBC",
"~ c #C4C4C4",
"^ c #CCCCCC",
"/ c #D3D3D3",
"( c #DBDBDB",
") c #E4E4E4",
"_ c #ECECEC",
"` c #F4F4F4",
"' c #FEFEFE",
/* pixels */
"                           ..       O%>>>&%O       .o                           ",
"                              %>tisTQ~//^~!WTspt<%   O                          ",
"                        .  %tsE/`''''''''''''''`/WUy>  ..  .                    ",
"                        .<Y!)'''''''''''''''''''''''~TtO  .     .               ",
"                      OyE)''''''''''''''''''''''''''''_Wp%     .                ",
"                  . OyW_'''''''''''''''''''''''''''''''''~a& ..                 ",
"                   <R_''''''''''''''''''''''''''''''''''(/~QuO                  ",
"                 %p)''''''''''''''''''''''''''''''''''`d&O>d/T& ..              ",
"           .    ,E`'''''''''''''''''''''''''''''''''''YO .  U`!y .  o           ",
"            .  u/''''''''''''''''''''``____''''''''''_1 .   1(')p.Oo .          ",
"           . .a)''''''''''''''''(~WYapttttupdE!('''''),     ,('``YO             ",
"            .s_''''''''''''''_Ws1>O          .%<iR/''_y  oO t)''''W% .          ",
"            U''''''''''''''(U1O     ..     .     .,pQ'!,   %W`)QdU^E% .         ",
"        X  s'''''''''''''^d>   .O          .        %pQQataQ`)a% O>WE%          ",
"        . p)''''''''''')T>   .                    .   &a^`_''RO    ,(T .        ",
"      .. t)'''''''''''!t. O XX  .*30lbnnbmvk08*   .  .  <W''`u O o  W's .       ",
"        ,/''''''''''`E>    X  =0bAGLIPIIJGIPLFFM0;   X.X %s('i O O .E')y O .    ",
"     . OE''''''''''_d%    X *fZJGFFAFAFFFFFAFFFLIZg-      .i/WO .  <)''^,.      ",
"     . a_'''''''''_pO   X +gZGFSFFFFFFFFFFFFFFFFSFPZg#X  .  y~s% .<Q''''R..     ",
".     >('''''''''_a.     2MJFSFFFFFFFFFFFFFFFFFFFSSSJM4O  .  u^!UT('''''_i .    ",
"   . .T''''''''''UO   . 0FGAFFFFFFFFFFFFFFFFFFFFFSFAAFFe X .O u)'''''''''/&     ",
"     t_'''''''''E% o . 0GFAFFFFFFFFFFFFFFFFFFFFFFFFFFFSGe  o ..a_'''''''''U     ",
"    %W'''''''''^&   X qPAAFFFFFFFFFFFFFFFFFFFLFFFFFFFFFFPe     %T'''''''''~,    ",
"    y_''''''''_t  .  qPSFFFFFFFFFFFFFFFFFFFFFFFFFLFFFFFASPrX. . >^''''''''`s    ",
" .  R'''''''''Y    .9GSFSFFFFFFFFFFFFFFFFFFFFFFFFFFFFFFFFSG0 XX  u'''''''''!& o ",
"   <)''''''''~,    :GFSFFFFFFFFFFFFFFFFFFFFFFFLFFFFFFFFFFFFG:X.  %E'''''''''i . ",
" . Y'''''''''d .  +bFSAFFFFFFFFFFFFFFFFFFFFFFFFFFFFFFFFLFFFFM$ .. t)''''''''WO  ",
". %Q''''''''^>    fHAFFFFFFFFFFAFFFFFFFFFFFFFFFFLFFFFFFFFSFAIf    %W''''''''_1 .",
"  1(''''''''d .  *ZSSSAFFFFFFLALFFFFFFFFFFFFFFFFFFFFFFFFFSFSDZ; .  u`''''''''s  ",
"  s''''''''/1    gPSSFLFFFFFFFLAFFFFFFFFFFFFFFFFFFFFLFFFFFFFSGfX . O!''''''''EO ",
" OR''''''''W%   *ZFSFSLFFFFFFFFLFFFFFFFFFFFFFFFFALFLFFFFFFFFSFZ- .  U''''''''(& ",
" >^''''''''p .  9ICSSLFFFFFFFFFFFFFFFFFFFFFFFFFFFALAFFFFFFFSSAJ0    1`'''''''`t ",
" 1`''''''')1 .  MPKFFLLFFFFFFLFFFFLLFFFFFFFFFFFFFLFFFFFFFFFFFKPVX   O^''''''''a ",
" u''''''''~>   *FLFFFLKFFFFFFFFFFFFFFFFFFFFFFFFFFFFFFFFFFFFFFLFF* .  R''''''''U ",
" a''''''''WO   3FFFFFFFFFFFFFFFFFFFFFFFFFFFFLFFFKLFFFFLFFFFFFFFL3    a''''''''Q ",
" T''''''''U    9GAFFFFFFFFFFFFFFFFLFFFFFFFFFFFFFLFFFFFFFFFFFFFFL0    u_'''''''^ ",
"OT''''''''a    kPFFFFFLFFFFFFFFFFFFFFFFFFFFFFFFFFLFFFFFFLFFFFFKIl    1_'''''''/ ",
"%Q'''''''`u    bJAFFFFFFFFFFFFFFFFFFFFFFFFFFFFFFFFFFFFFFFFFFFFFIv  . ,)'''''''(.",
"OQ'''''''_y  X nGFFFFFFFFFFFFFFFFFFFLFFFFFFFFFFFFFFFFFFFFFFFFFFIc  . &)''''''').",
"%~'''''''`t    mIAFFFFFFFFFLFFFFFFFFFFFFFFLFFFFFFFFFFFFFFFFFFFFPm    %('''''''_O",
">/'''''''_t    mGFFFFFFFFFFFFFFFFFFFFFFFFFFFFFFFFFFFFFFFFFFFFFFPm X  >)'''''''_O",
"&^'''''''_t    cJFFFFFFFFFFFFFFFFFFFFFFFFFFFFFFFFFFFFFFFFFFFFFFPm  . >)''''''')O",
"O!''''''''u    vJAFFFFFFFFFFFFLFFFFFFFFFFFFFFFLFFFFFFFFFFFFFFFFPm    ,)''''''') ",
".W''''''''a .. kPFFFFFFFFFFFFFFFFFFFFFFLFFFFFFFFFFFFFFFFFFFFFFFIc .  <)'''''''(.",
" R''''''''T X  9GSAFFFFFFFFLFFFFFFFFFFFFFLFFFFFFFFFFFFFFFFFFFFALr X  u_'''''''/ ",
" d''''''`'W.   3FFFFLFFFFFFFFFFFFFFFFFFFFFFFFFFFFFFFFFFFFFFFFFFF5    p''''''''! ",
" i''''''''!& . *FFFFFFFFFFFFFFFFFFFFFLFFFFFFFFFFFFFFFFFFFFFFAFFF-    R''''''''T ",
" t`'''''''(1 X  bGAFFFLFLFFFFFFFFFFFFFFFFFFFFFFFFFFFFFFFFFFFFFGV.   %~''''''''d ",
" ,)''''''''a    9IASSSFFFFFFFFFFFFFFFFFFFFFFFFFFFFLFFFFFFFFFFFPe    <_'''''''`u ",
" %Q''''''''R. O *ZFSLLFFFFFFFFFFFFFFFFFFFFFFFFFFFFFFFFFFFFFFFFK=  . a''''''''(, ",
". d'''''''')< O  gGSAFFFFFLFFFFFFFFFFLFFFFFFFFFFFFFFFFFFFFFFAGh  . OQ''''''''E% ",
"X y`''''''''a .. *ZGSFFFFFFFFFFFFFFFFFFFFFFFFFFFFFFFFFFFFFFFFZ*X.  1`''''''''d .",
". >^''''''''^%    fHAFSLFFFFFFFFFFFFFFFFFFFFFFFFFFFFFFFFLFSSHj X.  E''''''''`t  ",
".  Y'''''''''p  . +bFAFFALFFFFFFFFFFFFFFFFFFFFFFFFFFFFFFFSSFV@    <(''''''''Q&  ",
" . t_''''''''!& X  4FFSSALAFFFFFLFFFFFFFFFFFFFFFFFFFFFFFSASP6  ..OY'''''''''p . ",
"  OOE'''''''''s  XX qGSSLAFFFFFFFFFFLFFFFFLFFFFFFFFFLFFFFSPq . O t)''''''''(,   ",
"  O i`''''''''^< X  XqGSSFFFFFFFFFFFFFFFFFLFFFFFFFFFLASSAPx XX. &!'''''''''Y.   ",
"    &!'''''''''!%.. o xPSFFSLFFFFFFFFFFFFFFFFFFFFLFFFFLSPN     XU'''''''''(1    ",
".   .i_'''''''''d .  . rGFAFFFFFFFFFFFFFFFFFFALAFFFSFASPxo X O u_''''''''`TO    ",
"     %W''''''''')i .O   qFFAFFSFFFFFLFFFFFFFFLALAFFFAFLh    O 1('''''''''(,     ",
"      t_'''''''''(u O    4MHSSFFFFFFFFFFFFFFFFFSLAFFJM7      <^''''''''''s .    ",
"       d`'''''''''(u  . X $gZGFAFFFFFFFFFFFFFSFFAFGKj#   .  <!''''''''''Q% .    ",
"     . &!'''''''''')i   X  X*fKPFFFFFFKLFAFFFFSGJZh=  . .  1~''''''''''(t       ",
"        t(''''''''''_s%   .   ;wVFLPPIIIIJJIGFSMw; X.  O  u('''''''''''a.       ",
"       . p_''''''''''`E<         *5qzvvvvcvle5*      O. &U_'''''''''''T. .      ",
"         OU`'''''''''''/pO . ..              X     .  OtQ''''''''''''W%         ",
"        . OR'''''''''''''WyO   ..       . X     ..  .tY)''''''''''''Q>.         ",
"       .   &T''''''''''''')Wi%     . .            .tR('''''''''''''!> .         ",
"            %T''''''''''''''`~Yt%.             %1sQ`''''''''''''''Q, o          ",
"           . &U_'''''''''''''''_^Wsu1<>>>>,<yaY~)''''''''''''''''W< X           ",
"              Oa)''''''''''''''''''``_))())__'''''''''''''''''''Y%   .          ",
"           .    y~''''''''''''''''''''''''''''''''''''''''''''(pO               ",
"             . . >T`''''''''''''''''''''''''''''''''''''''''`W1  O              ",
"                .  u!''''''''''''''''''''''''''''''''''''''/a& .                ",
"                    &d~''''''''''''''''''''''''''''''''''(Y,.                   ",
"                  .   ,a!''''''''''''''''''''''''''''''(U<O                     ",
"                    .   &pR_''''''''''''''''''''''''_Wp>.  .                    ",
"                 .     O  %<aR/_'''''''''''''''''(Eat%   .                      ",
"                        .    .&yaYQ^()___))(^QYay>O.  O.  .                     ",
"                                     .Ooo..                                     "
};
