/* XPM */
static char *vert_[] = {
/* columns rows colors chars-per-pixel */
"80 80 58 1",
"  c #010101",
". c #050905",
"X c #080408",
"o c #0A0A0A",
"O c #041204",
"+ c #011E01",
"@ c #141414",
"# c #1B1B1B",
"$ c #042104",
"% c #012F01",
"& c #043404",
"* c #013D01",
"= c #0A3A0A",
"- c #242424",
"; c #2B2B2B",
": c #333333",
"> c #3B3B3B",
", c #034203",
"< c #015D01",
"1 c #046304",
"2 c #046904",
"3 c #096509",
"4 c #0C6A0C",
"5 c #017C01",
"6 c #0A710A",
"7 c #127012",
"8 c #444444",
"9 c #4B4B4B",
"0 c #535353",
"q c #5B5B5B",
"w c #646464",
"e c #6C6C6C",
"r c #737373",
"t c #7C7C7C",
"y c #018501",
"u c #018B01",
"i c #069006",
"p c #099309",
"a c #00A600",
"s c #01AC01",
"d c #00B300",
"f c #00BC00",
"g c #848484",
"h c #8C8C8C",
"j c #949494",
"k c #9C9C9C",
"l c #A4A4A4",
"z c #ACACAC",
"x c #B3B3B3",
"c c #BCBCBC",
"v c #C4C4C4",
"b c #CCCCCC",
"n c #D3D3D3",
"m c #DBDBDB",
"M c #E4E4E4",
"N c #ECECEC",
"B c #F4F4F4",
"V c #FEFEFE",
/* pixels */
"                           XX       o@---#@o       X.                           ",
"                              @-8qrjxvnnbvczjrw8:@   o                          ",
"                        X  @8rlnBVVVVVVVVVVVVVVBnzg9-  XX  .                    ",
"                X       .:hcMVVVVVVVVVVVVVVVVVVVVVVVvj8o  X     X               ",
"                      o9lMVVVVVVVVVVVVVVVVVVVVVVVVVVVVNzw#     X                ",
"                  X o9zNVVVVVVVVVVVVVVVVVVVVVVVVVVVVVVVVVve@ X.                 ",
"                   :kNVVVVVVVVVVVVVVVVVVVVVVVVVVVVVVVVVVmbbz0o                  ",
"                 @wMVVVVVVVVVVVVVVVVVVVVVVVVVVVVVVVVVVBt#o-tnj# XX              ",
"           X    ;lBVVVVVVVVVVVVVVVVVVVVVVVVVVVVVVVVVVVho X  gBc9 .  o           ",
"            X  0nVVVVVVVVVVVVVVVVVVVVBBNNNNVVVVVVVVVVN>  X  >mVMwXo. X          ",
"           X XeMVVVVVVVVVVVVVVVVmvzhew88880wtlcmVVVVVM;   X ;mVBBho             ",
"            .rNVVVVVVVVVVVVVVNzr>-o          X@:qknVVN9 ..X 8MVVVVz@ X.         ",
"           XgVVVVVVVVVVVVVVmg>o     X      .     X;wcVc;   @zBMxttbl@ X         ",
"        X  rVVVVVVVVVVVVVbt-   Xo    .     X        owxxe8exBMe@ o;zl@          ",
"          wMVVVVVVVVVVVMj-   .                    X   #ebBNVVko    ;mj X        ",
"     .X. 8MVVVVVVVVVVVc8X o XX  X+*<5uyyuyy51,+ X    X  :zVVB0 o X  xVr X       ",
"        ;nVVVVVVVVVVBl-       +<usffffffffffffsu1$    XX @rmVq o o .zVM9 o X    ",
"     X olVVVVVVVVVVNt@    X +2sffdsddsdddddssddffa2$ X    .qnzo X  :MVVb;       ",
"     X eBVVVVVVVVVNwo   X O2affssfdsfdddddddddddsffa2O   X  9vr@ X:xVVVVkX.     ",
"X     -mVVVVVVVVVNeX     *ufddsddsdddddddddddddsdssffu=o  . X0bctjmVVVVVNq X    ",
"     XjVVVVVVVVVVgo     <fdsddddddddfsdddsdddddfddddsff1 X XX 0MVVVVVVVVVn-     ",
" . X 8NVVVVVVVVVl@ o X 1fdsddddddddddddddfdddddddddddssf2  .  .eNVVVVVVVVVt     ",
"    oxVVVVVVVVVb# X X 1fdsddddsdddfsddddfdddddddddddddddf2X    @jVVVVVVVVVv;    ",
"    9NVVVVVVVVM8     <fdddddddfdddddddddsddddsfdddddddddsf3X. X ;bVVVVVVVVBr    ",
" X  kVVVVVVVVVhX   X<fssddddddddddddddddfsdddddddddddddddsf< XX  0VVVVVVVVVv# o ",
"   :MVVVVVVVVv;    &fdsfddddddddddddfsdddddddddddddddddddddd&  X @lVVVVVVVVVq X ",
" X hVVVVVVVVVt .  .ufsddddddsdddddddsfdddddddfsddfsdddddddsfiO .  8MVVVVVVVVlo  ",
". @xVVVVVVVVb-    2fsdddddddfdddfsdddddddddddddddsfdddddddfsf2  . oxVVVVVVVVN> o",
"  >mVVVVVVVVt .  $adsdddddddddddddsfdddddddsddfdddddddddddfsfs$    0BVVVVVVVVe  ",
"  rVVVVVVVVn>    2fdddddddsfdddddddddddddddfddsdddddsfddddsdsf2  X ocVVVVVVVVlo ",
" okVVVVVVVVz@   +afsddddddddddfddddddddfddfdddddddddddddddddsfa$ X  gVVVVVVVVm# ",
" -bVVVVVVVVw X  <fsdddddddddddsddddddddsddsdddddddsfddddddddddf<    >BVVVVVVVB8 ",
" >BVVVVVVVM> X  yfdddddddddddddsddfsddddsddddddddsdddddfsdddddfuX   obVVVVVVVBe ",
" 0VVVVVVVVv-   +sddddddddddddddfsfddddddfddddddddfdddddddddsdddd+ X  kVVVVVVVVh ",
" eVVVVVVVVzo   *fddddfsddfdddddddddddddddddddsddfddddddddddfdddf*    eBVVVVVVVx ",
" jVVVVVVVVg    <fsdddsfddssfddddddddddsfdddddfddsddddsfddddddssf1    0BVVVVVVVb ",
"ojVVVVVVVVe    5fsfsddddddddddddddddddddddddddsfddddddddfddddddf5    >NVVVVVVVnX",
"@xVVVVVVVB0    yfdddddddddddsfddddddddsfddfsddddddddddddsdddddsfy  X ;MVVVVVVVm.",
"oxVVVVVVVN9  X yfsddsddddddfddddddfsddddddsfdddddddsdsddddddfddfy  X #MVVVVVVVMX",
"@vVVVVVVVB8    yfdddfddddddsddddfddddddddddddddddddfdfddddddsddfu    @mVVVVVVVNo",
"-nVVVVVVVN8    yfdddddddddddfsddsdddddfdddddsdddddsfsfdddddddsdfy X  -MVVVVVVVNo",
"#bVVVVVVVN8    yfdddddddddddddsfddddddsdddddfddddddddddddddddfsfy  X ;MVVVVVVVMo",
"ocVVVVVVVV0    yfsfdddddddddddddddddddddddfsdddddddddddddsddddsfy    ;MVVVVVVVM ",
"XxVVVVVVVVe  . 5fddddddddsfddddddsfddddsdddddddddddddddddfdddfdfy .X :MVVVVVVVmX",
" kVVVVVVVVj    <fsdddddddddddddddddddddfddddfsdddsddddddddsfddsf3 X  0NVVVVVVVn ",
" tVVVVVVBVzX   *fddddddddsddfdddddddfdddddddddsfdfddddfsddddddsf,    wVVVVVVVVc ",
" qVVVVVVVVv# X +sddddddddfddsddddfsdsdddfdddddddfdddddsfdddddddd$    kVVVVVVVVj ",
" 8BVVVVVVVm: .  yfdddddddddddddsddddddddsdddddddsddddddddddddsfu    @vVVVVVVVVt ",
" ;MVVVVVVVVe  X <fsddddddddddddfsfddddddddddddddddddddfddddddsf1    >MVVVVVVVB0 ",
" @xVVVVVVVVkX . +afsdddddddddddddddddddddddddddsddddddsddddddda+  . eVVVVVVVVm; ",
"X tVVVVVVVVM; o  2fddddddddddddddddddfddfsdddddfddddddddddddsf2 .  oxVVVVVVVVl@ ",
". 9BVVVVVVVVr .X +afdddddddddsfddddddssfddsfddddddsfddddddddfa+X   >BVVVVVVVVt .",
"X -bVVVVVVVVb@X  X2fsfdddddddddddddfddddddddddddddddddddsfdsf6 XX  kVVVVVVVVB8  ",
"X  jVVVVVVVVVw   X.ufsdsdddddddddddsdddddddddsddddddsfddddsdpO    :MVVVVVVVVx#  ",
"   8NVVVVVVVVc# X  &ddsfdddddsddddddddddddfsdfdddsdddddddddf=  XXohVVVVVVVVVw X ",
"  oolVVVVVVVVVe   X <fdddddddfddddddsfdddddddddddfddddddddf1 . . 8MVVVVVVVVm;   ",
"  o qBVVVVVVVVb: .  X<fddddddddddfsddddddddfsdddddddfsddsf4 X o @cVVVVVVVVVhX   ",
"    #cVVVVVVVVVc@ . o 3fdddddddddsfddddddddddddsfdddsdddf7    X gVVVVVVVVVm>    ",
"X   XqNVVVVVVVVVtXX  X 2fssddddddddddddddddddddfsddddddf4X X o 0NVVVVVVVVBjo    ",
"     @zVVVVVVVVVMq Xo   <ffsddddddddddsfdsfdddddddsdsff3    o :mVVVVVVVVVm;     ",
"      8NVVVVVVVVVM0 oX   =ufddsddddddddddddddddddsddfp=      :bVVVVVVVVVVr X    ",
"       tBVVVVVVVVVm9  .   O2affsddddddsfsfdddddssffs6O   X  :cVVVVVVVVVVx@ .    ",
"     X #cVVVVVVVVVVM0X X  XX+2affssdsfdsfsssdddffs3+  . X  >vVVVVVVVVVVM8       ",
"        8mVVVVVVVVVVMro . X   $1udffffffffffffsp<$  .  o  0mVVVVVVVVVVVwX  X    ",
"       X wNVVVVVVVVVVBl:         $,15yyyuyy53,+X     o  #gNVVVVVVVVVVVjX X      ",
"         ohNVVVVVVVVVVVnwo X XX                    .X .9xVVVVVVVVVVVVz@         ",
"        X okVVVVVVVVVVVVVz9o   ..         X     XX  X8hMVVVVVVVVVVVVx-X         ",
"       X   #jVVVVVVVVVVVVVMzq@     X X             8kmVVVVVVVVVVVVVc; X         ",
"            @jVVVVVVVVVVVVVVBvh8@X             @>rxBVVVVVVVVVVVVVVx; .          ",
"           X #gNVVVVVVVVVVVVVVVNbzr0>:--#;;>9ehvMVVVVVVVVVVVVVVVVz:             ",
"          X   oeMVVVVVVVVVVVVVVVVVVBBNMMMMMMNVVVVVVVVVVVVVVVVVVVh@   X          ",
"           X    9vVVVVVVVVVVVVVVVVVVVVVVVVVVVVVVVVVVVVVVVVVVVVmwo               ",
"             X X -jBVVVVVVVVVVVVVVVVVVVVVVVVVVVVVVVVVVVVVVVVBx>  o              ",
"                X  0cVVVVVVVVVVVVVVVVVVVVVVVVVVVVVVVVVVVVVVne#                  ",
"                    #tvVVVVVVVVVVVVVVVVVVVVVVVVVVVVVVVVVVmh;X                   ",
"                  X   ;ecVVVVVVVVVVVVVVVVVVVVVVVVVVVVVVmg:o                     ",
"                    X   #wkNVVVVVVVVVVVVVVVVVVVVVVVVNzw;X  X                    ",
"                 X     o  @:eknNVVVVVVVVVVVVVVVVVmke8@   X                      ",
"                        X    X#9ehxbmMNNNMMmbxhe9-oX  o   .                     ",
"                                     Xoo.XX         X                           "
};
